<svg xmlns="http://www.w3.org/2000/svg" id="Layer_1" data-name="Layer 1" viewBox="0 0 512 213.88"><g><g><path d="M14.64,118.12c1.48-18.6,5.14-35.25,19.15-47.48,12.54-10.95,27.09-16.51,43.1-9.65,13.7,5.87,25.92,5.44,39.65-.08,18.57-7.48,39.89-1.14,51.32,12.89,1.99,2.44,2.36,3.76-.6,5.84-25.91,18.24-22.99,58.62,4.45,73.57,3.08,1.68,3.74,3.27,2.47,6.61-5.54,14.63-13.48,27.72-24.35,38.97-7.78,8.06-17.03,10.59-27.76,6.69-1.93-.7-3.89-1.35-5.78-2.16-11.29-4.81-22.54-4.56-33.83,.08-2.85,1.17-5.89,1.85-8.73,3.03-8.76,3.63-16.05,.27-22.15-5.46-19.69-18.52-30.43-41.79-34.91-68.17-.88-5.2-1.45-10.45-2.03-14.66Z" style="fill: #fff;"></path><path d="M134.86,15.56c-.31,16.93-13.75,34.52-29.63,39.09-.84,.24-1.69,.49-2.56,.64-6.59,1.13-8.25-.5-7.33-7.19,2.53-18.4,17.17-33.76,35.46-37.52,5.62-1.16,3.58,2.86,4.06,4.98Z" style="fill: #fff;"></path></g><g><path d="M411.43,73.58c16.75,0,33.51,.1,50.26-.07,4.11-.04,5.75,1.2,5.72,5.5-.13,25.13,0,50.26-.08,75.39-.02,8.02-5.84,13.53-14.15,13.6-9.32,.08-8.73-.76-8.73,8.93,0,5.88,.04,11.76-.02,17.64-.07,7.45-5.25,13.57-11.57,13.78-6.34,.22-12.89-6.43-13.09-13.63-.2-7.2-.21-14.4-.02-21.6,.1-3.81-1.31-5.13-5.13-5.16-12.17-.1-12.2-.22-12.45,11.97-.1,4.85,0,9.7-.03,14.55-.04,8-4.87,13.6-11.85,13.79-6.11,.17-12.61-6.47-12.82-13.46-.21-7.05-.24-14.11-.02-21.16,.13-4.13-1.22-6.16-5.52-5.6-11.5,1.49-17.71-7.78-17.5-17.6,.43-20.7,.55-41.41,.76-62.12,.03-2.93-.21-5.87-.27-8.81-.11-4.97,.77-5.9,5.81-5.91,16.9-.03,33.8-.01,50.7-.01Z" style="fill: #fff;"></path><path d="M447.77,6.97c-2.22,4.03-4.2,8.21-6.72,12.04-2.21,3.36-1.87,5.33,1.71,7.36,13.35,7.57,20.8,19.5,24.23,34.12,1.58,6.74,.37,7.98-6.63,7.99-32.75,0-65.49,.01-98.24,0-6.96,0-7.56-.8-6.44-7.69,2.54-15.6,11.67-26.63,24.51-34.88,3.26-2.09,3.37-3.67,1.55-6.63-2.38-3.85-4.38-7.94-6.55-11.93,.53-.33,1.06-.66,1.59-.98,.86,1.01,1.89,1.92,2.54,3.05,1.69,2.92,3.33,5.88,4.76,8.94,1.38,2.95,3.35,3.82,6.39,2.66,13.74-5.28,27.59-4.38,41.34-.21,3.54,1.07,5.42,.43,7.02-2.85,2.06-4.2,4.54-8.18,6.84-12.26,.7,.42,1.41,.85,2.11,1.27Zm-10.5,41.13c3.06,.07,4.81-1.56,4.75-4.49-.07-3.08-2.05-4.9-5.14-4.79-2.81,.1-4.67,1.73-4.72,4.73-.05,3.39,2.02,4.6,5.11,4.55Zm-52.48,.78c.69-.01,1.38-.03,2.08-.04,1.17-1.64,3.11-3.18,3.33-4.93,.34-2.76-1.16-5.26-4.5-5.17-3.06,.08-5.25,1.93-4.59,5.02,.4,1.88,2.41,3.43,3.69,5.12Z" style="fill: #fff;"></path><path d="M497.29,110c0,8.37-.21,16.74,.06,25.1,.25,7.69-6.15,12.49-12.26,13.16-6.15,.68-12.36-5.93-12.41-12.94-.13-17.32-.12-34.64,0-51.95,.05-6.64,5.91-12.2,12.5-12.32,6.2-.11,11.9,5.39,12.05,12.09,.19,8.95,.05,17.9,.05,26.86,0,0,.02,0,.02,0Z" style="fill: #fff;"></path><path d="M349.96,110.27c0,7.93-.01,15.87,0,23.8,0,4.3-1.18,7.98-4.61,10.94-6.79,5.85-16.87,2.96-19.22-5.72-.53-1.96-.85-4.05-.86-6.08-.07-15.57-.09-31.15,0-46.72,.03-5.97,1.27-11.36,7.57-14.18,6.79-3.04,14.91,.32,16.18,7.64,1.04,6.01,.75,12.26,.93,18.41,.12,3.96,.02,7.93,.02,11.9Z" style="fill: #fff;"></path></g></g><g><rect x="214.03" y="104.16" width="48.81" height="5.73" style="fill: #fff;"></rect><rect x="214.03" y="104.16" width="48.81" height="5.73" transform="translate(131.41 345.46) rotate(-90)" style="fill: #fff;"></rect></g></svg>