<svg xmlns="http://www.w3.org/2000/svg" id="Layer_1" data-name="Layer 1" viewBox="0 0 512 512"><path d="M511.95,299.52c-4.89,1.22-9.68,2.42-14.46,3.6-10.18,2.51-20.35,5.04-30.54,7.5-1.25,.3-1.84,.84-2.18,2.1-4.6,17.15-11.28,33.47-20,48.94-.71,1.26-.7,2.14,.06,3.38,7.77,12.73,15.45,25.51,23.23,38.23,.82,1.34,.68,2.07-.4,3.15-20.06,20-40.09,40.02-60.09,60.08-1.04,1.04-1.74,1.12-2.99,.35-12.5-7.63-25.06-15.16-37.56-22.8-1.39-.85-2.38-.98-3.88-.11-15.4,8.84-31.67,15.64-48.78,20.39-1.42,.39-1.66,1.26-1.93,2.36-3.49,14.21-7.03,28.42-10.43,42.65-.49,2.05-1.25,2.66-3.39,2.65-27.99-.09-55.99-.07-83.99-.02-1.71,0-2.33-.48-2.73-2.16-3.44-14.29-7.01-28.56-10.48-42.84-.31-1.26-.83-1.86-2.09-2.19-17.16-4.59-33.47-11.28-48.95-19.98-1.24-.7-2.12-.77-3.38,0-12.79,7.8-25.63,15.51-38.42,23.3-1.19,.72-1.85,.67-2.84-.32-20.09-20.15-40.21-40.28-60.37-60.36-1.08-1.07-.83-1.77-.18-2.85,7.65-12.57,15.23-25.18,22.89-37.74,.77-1.27,.88-2.19,.09-3.55-8.84-15.33-15.59-31.55-20.38-48.58-.41-1.45-1.12-2.01-2.46-2.34-14.22-3.46-28.42-7.01-42.66-10.4C.61,301.48,0,300.73,0,298.59c.09-28,.07-55.99,.02-83.99,0-1.72,.5-2.3,2.18-2.7,14.36-3.45,28.69-7.05,43.03-10.56,1.09-.27,1.66-.74,1.96-1.85,4.61-17.29,11.35-33.72,20.15-49.3,.7-1.24,.54-2.07-.14-3.2-7.76-12.74-15.44-25.51-23.21-38.24-.8-1.31-.73-2.06,.37-3.15,20.06-19.99,40.09-40.02,60.09-60.08,1.01-1.02,1.7-1.17,2.99-.38,12.38,7.57,24.83,15.04,37.21,22.62,1.64,1.01,2.82,1.13,4.58,.12,15.11-8.68,31.09-15.34,47.86-20.06,1.7-.48,2.29-1.33,2.66-2.87,3.43-14.16,6.95-28.3,10.34-42.47C210.51,.63,211.2,0,213.18,0c28.06,.08,56.12,.07,84.18,.02,1.67,0,2.33,.42,2.75,2.13,3.45,14.36,7.05,28.68,10.54,43.03,.29,1.2,.87,1.72,2.03,2.03,17.08,4.6,33.35,11.25,48.77,19.9,1.5,.84,2.52,.73,3.91-.12,12.62-7.69,25.29-15.3,37.91-23,1.32-.81,2.06-.73,3.15,.37,19.98,20.07,40,40.11,60.05,60.12,1.05,1.04,1.11,1.74,.35,2.98-7.67,12.56-15.25,25.17-22.92,37.72-.79,1.29-.83,2.21-.06,3.55,8.79,15.28,15.55,31.42,20.31,48.39,.41,1.47,1.07,2.16,2.54,2.51,14.23,3.44,28.42,7,42.66,10.38,2.1,.5,2.64,1.31,2.63,3.41-.08,27.86-.05,55.73-.05,83.59,0,.79,0,1.57,0,2.49Zm-501.57-6.48c.76,.22,1.37,.44,2,.59,12.86,3.17,25.74,6.31,38.59,9.54,3.01,.76,5.06,2.84,5.87,5.79,4.99,18.3,12.24,35.64,21.85,52,1.6,2.73,1.55,5.67-.1,8.41-6.7,11.14-13.41,22.27-20.2,33.35-.89,1.45-.79,2.26,.42,3.46,16.1,16.01,32.16,32.07,48.17,48.18,1.28,1.29,2.12,1.34,3.63,.41,11.25-6.9,22.54-13.72,33.87-20.49,2.53-1.51,5.48-1.52,7.91-.13,17.39,9.99,35.78,17.42,55.27,22.11,1.42,.34,2.05,.93,2.39,2.35,3.29,13.65,6.7,27.27,9.96,40.93,.41,1.71,1.12,2.11,2.78,2.11,22.71-.05,45.42-.04,68.13-.03h2.14c.22-.67,.41-1.16,.53-1.67,3.19-12.93,6.35-25.87,9.57-38.79,.75-3.02,2.76-5.14,5.71-5.94,18.37-5.01,35.75-12.31,52.18-21.93,2.57-1.5,5.5-1.51,8.08,.03,11.22,6.68,22.4,13.44,33.53,20.28,1.57,.97,2.38,.76,3.61-.48,16.06-16.15,32.17-32.25,48.31-48.32,1.11-1.1,1.16-1.84,.36-3.15-6.89-11.26-13.72-22.54-20.51-33.86-1.68-2.79-1.69-5.82-.08-8.62,9.37-16.27,16.42-33.48,21.17-51.64,.86-3.3,3.02-5.48,6.34-6.31,12.54-3.12,25.08-6.22,37.64-9.23,1.62-.39,2.18-.99,2.18-2.73-.07-22.78-.04-45.55-.04-68.33v-1.99c-.77-.22-1.4-.42-2.03-.57-12.93-3.19-25.88-6.31-38.78-9.6-2.8-.71-4.83-2.75-5.6-5.57-5.01-18.37-12.27-35.77-21.91-52.19-1.57-2.67-1.56-5.57,.03-8.24,6.75-11.26,13.56-22.49,20.4-33.69,.72-1.19,.83-1.91-.26-3-16.29-16.2-32.53-32.45-48.74-48.73-1.07-1.07-1.78-1.05-2.99-.31-11.38,6.94-22.77,13.85-34.23,20.67-2.49,1.48-5.41,1.56-7.9,.14-16.4-9.4-33.72-16.54-51.99-21.36-3.46-.91-5.6-3.13-6.46-6.66-3.04-12.49-6.14-24.96-9.18-37.45-.33-1.37-.78-2.05-2.43-2.05-22.97,.07-45.95,.05-68.93,.02-1.22,0-1.89,.23-2.22,1.55-3.54,13.93-7.16,27.84-10.71,41.76-.36,1.4-.88,2.24-2.41,2.63-19.24,4.86-37.36,12.46-54.49,22.47-2.48,1.45-5.4,1.43-7.91-.06-11.22-6.69-22.4-13.46-33.52-20.3-1.56-.96-2.37-.8-3.62,.46-16.06,16.15-32.16,32.25-48.31,48.32-1.1,1.1-1.18,1.83-.38,3.14,6.92,11.31,13.8,22.65,20.61,34.03,1.6,2.66,1.6,5.62,.08,8.26-9.51,16.57-16.68,34.08-21.48,52.58-.68,2.61-2.66,4.63-5.34,5.31-12.71,3.23-25.45,6.38-38.2,9.42-1.95,.46-2.4,1.27-2.4,3.16,.07,22.58,.04,45.16,.04,67.74v2.2Z" style="fill: #fff;"></path><path d="M405.12,255.95c.09,82.21-66.97,149.27-149.17,149.17-82.27-.1-149.03-66.85-149.07-149.07-.04-82.25,66.97-149.27,149.17-149.17,82.28,.1,148.98,66.8,149.07,149.07Zm-149.24,138.77c75.86,.24,137.95-61.39,138.87-136.97,.94-77.05-61.34-139.68-137.15-140.51-77-.85-139.71,61.5-140.37,137.5-.67,77.15,62.18,140.13,138.64,139.98Z" style="fill: #fff;"></path><path d="M264.27,332.02h-12.97v-15.56c-3.98-.93-7.78-1.52-11.39-2.71-13.06-4.3-21.61-12.85-24.1-26.71-.5-2.78-.51-5.64-.73-8.46-.07-.89,.12-1.52,1.26-1.52,8.51,.04,17.03,.03,25.54,.05,.18,0,.37,.11,.57,.18,.29,2.16,.45,4.34,.9,6.45,1.79,8.31,8.3,12.71,16.69,11.37,4.62-.74,7.72-4.16,8.23-9.07,.82-7.92-1.66-12.84-8.86-16.46-5.47-2.76-11.2-4.98-16.73-7.63-3.26-1.57-6.44-3.35-9.48-5.32-10.02-6.48-14.37-15.88-14.15-27.69,.27-14.59,9.52-26.4,24.11-30.34,2.66-.72,5.41-1.19,8.14-1.6,1.21-.18,1.51-.64,1.5-1.77-.05-5.01-.02-10.02-.02-15.18h12.79c0,1.67,0,3.35,0,5.04,0,3.1,.17,6.22-.06,9.3-.17,2.28,.68,2.98,2.81,3.35,7.42,1.29,13.83,4.61,19.1,10.06,5.36,5.54,8.08,12.26,8.96,19.81,.25,2.14,.31,4.3,.47,6.61h-27.55c-.22-1.95-.35-3.85-.65-5.71-.95-5.81-4.22-9.68-8.91-10.67-6.11-1.29-10.95,1.58-12.19,7.67-1.54,7.54,.09,12.71,6.57,16.18,5.75,3.08,11.74,5.7,17.54,8.69,5.98,3.09,11.86,6.36,16.67,11.23,5.17,5.23,7.65,11.56,8.1,18.82,.57,9.19-1.31,17.62-7.73,24.57-5.06,5.48-11.61,8.32-18.74,9.99-1.28,.3-2.58,.69-3.88,.71-1.69,.04-1.86,.89-1.84,2.27,.06,4.61,.02,9.22,.02,14.06Z" style="fill: #fff;"></path></svg>