<svg xmlns="http://www.w3.org/2000/svg" id="Layer_1" data-name="Layer 1" viewBox="0 0 512 385.41"><path d="M512,139.54c-.03,3.14-1.87,6.45-4.77,9.34-11.56,11.51-23.09,23.06-34.63,34.6-29.89,29.88-59.77,59.78-89.67,89.65-10.71,10.7-21.49,21.32-32.2,32.03-12.79,12.79-25.55,25.61-38.26,38.48-2.64,2.67-5.56,4.52-9.22,5.56-21.73,6.19-43.41,12.52-65.11,18.82-5.89,1.71-11.79,3.44-17.66,5.22-5.45,1.66-10.42,1.11-14.56-3.11-4.06-4.14-4.46-9.02-2.89-14.38,4.51-15.37,8.92-30.76,13.38-46.14,3.77-12.98,7.51-25.98,11.41-38.93,.52-1.71,1.62-3.43,2.88-4.71,14.8-14.94,29.68-29.8,44.55-44.67,20.03-20.04,40.05-40.08,60.09-60.11,19.72-19.71,39.47-39.41,59.2-59.12,11.28-11.27,22.54-22.58,33.82-33.85,5.28-5.27,13.44-5.38,18.72-.12,20.18,20.11,40.32,40.28,60.48,60.41,2.77,2.76,4.35,6.03,4.44,11.01Zm-64.13,31.28c-14.14-14.21-28.18-28.32-42.43-42.64-5.89,5.97-11.79,12.02-17.75,18.01-21.7,21.76-43.4,43.52-65.13,65.24-22.41,22.41-44.88,44.76-67.28,67.18-1.41,1.41-2.99,2.99-3.63,4.79-1.68,4.77-2.97,9.7-4.22,14.61-.22,.88,.15,2.31,.79,2.95,9,9.14,18.08,18.21,27.21,27.22,.59,.58,1.91,.89,2.74,.68,4.14-1.05,8.19-2.47,12.34-3.44,2.82-.66,4.92-2.07,6.93-4.09,22.52-22.6,45.12-45.12,67.68-67.68,20.41-20.42,40.79-40.87,61.19-61.3,7.24-7.25,14.5-14.47,21.56-21.52Zm31.91-32.25c-14.04-14.07-28.01-28.07-41.94-42.03-4.31,4.3-8.62,8.61-12.91,12.89,14,13.96,28.03,27.95,42.03,41.9,4.22-4.2,8.5-8.45,12.83-12.76Zm-239.34,183.24c-1.87,6.45-3.7,12.81-5.7,19.72,6.95-2,13.3-3.83,19.79-5.7-4.73-4.71-9.25-9.2-14.08-14.01Z" style="fill: #fff;"></path><path d="M325.98,147.31c-7.04,7.03-13.64,13.65-20.29,20.22-.34,.34-1.13,.53-1.59,.39-5-1.45-8.38-4.44-10.29-9.52-2.78-7.39-5.82-14.72-9.32-21.79-2.53-5.11-3.18-9.79-.63-15.01,4.45-9.12,8.64-18.36,13.03-27.51,.6-1.25,.62-2.05-.39-3.02-5.52-5.3-11-10.64-16.48-15.99-1.03-1.01-1.93-1.06-3.27-.36-8.86,4.58-17.82,8.97-26.66,13.59-5.28,2.76-10.12,2.4-15.51-.14-7.14-3.36-14.64-5.98-22.07-8.68-4.09-1.49-7.27-3.73-8.79-7.91-3.63-9.95-7.27-19.89-10.79-29.88-.59-1.66-1.28-2.55-3.13-2.5-7.57,.22-15.14,.31-22.71,.61-.74,.03-1.84,1-2.1,1.76-3.26,9.61-6.51,19.22-9.52,28.91-1.66,5.33-5.13,8.37-10.21,10.36-7.68,3.02-15.22,6.4-22.74,9.82-4.16,1.89-8.18,2.2-12.34,.23-7.64-3.63-15.34-7.15-22.94-10.86-7.53-3.68-7.52-3.8-13.32,2.21-3.77,3.91-7.4,7.94-11.14,11.87-1.06,1.12-1.23,2.12-.49,3.54,4.74,9.18,9.42,18.38,14.1,27.59,2.25,4.44,2.05,8.75-.06,13.31-2.98,6.45-6.24,12.92-8.04,19.73-2.05,7.74-6.47,11.95-13.85,14.24-8.57,2.66-16.96,5.87-25.39,8.97-.87,.32-2.03,1.43-2.06,2.21-.25,6.86-.26,13.73-.4,20.59-.03,1.49,.52,2.21,1.99,2.62,8.56,2.4,17.05,5.11,25.66,7.29,7.49,1.9,12.19,5.86,13.62,13.81,.71,3.96,2.59,7.76,4.27,11.48,1.97,4.38,4.27,8.61,6.49,12.88,2.41,4.64,2.29,9.19-.1,13.81-4.62,8.94-9.22,17.89-13.72,26.89-.37,.73-.29,2.26,.22,2.76,5.52,5.41,11.18,10.67,16.78,16,1.1,1.05,2.04,.85,3.32,.19,9.18-4.74,18.41-9.37,27.62-14.05,4.45-2.26,8.91-2.33,13.32,.03,7.64,4.1,15.74,7,24.03,9.48,5.4,1.62,7.79,5.98,9.48,11.06,3.1,9.27,6.48,18.45,9.88,27.62,.25,.67,1.66,1.27,2.55,1.29,5.34,.12,10.68,.06,15.87,.06-.69,4.55-1.86,8.9-1.87,13.26,0,4.26,1.19,8.53,1.89,12.99-.69,.05-1.9,.28-3.1,.22-8.98-.44-17.98-.7-26.93-1.51-5.13-.46-8.46-3.84-10.2-8.7-3.69-10.31-7.42-20.61-11.07-30.93-.52-1.46-1.28-2.28-2.78-2.82-4.01-1.46-7.96-3.1-11.89-4.78-1.67-.72-3.12-.78-4.8,.08-9.65,5-19.33,9.93-29.02,14.84-4.68,2.37-9.32,2.18-13.66-.83-14.03-9.71-26.61-20.9-36.33-35.09-3.16-4.61-3.87-9.33-1.38-14.34,3.52-7.1,7.17-14.14,10.78-21.19,1.38-2.7,2.92-5.32,4.1-8.1,.4-.96,.2-2.42-.24-3.43-2.22-5.14-4.77-10.14-6.87-15.33-.93-2.3-2.19-3.52-4.58-4.18-9.69-2.68-19.32-5.56-28.99-8.33-5.76-1.65-9.19-5.96-9.85-11.91-1.71-15.33-1.19-30.63,.47-45.92,.64-5.89,3.94-9.65,9.3-11.6,9.94-3.63,19.94-7.1,29.93-10.59,1.97-.69,3.17-1.78,3.87-3.89,1.33-4.05,3.15-7.94,4.6-11.96,.34-.93,.36-2.28-.06-3.14-4.85-9.81-9.8-19.58-14.76-29.34-2.86-5.61-2.12-10.69,1.64-15.7,9.51-12.69,20.45-23.94,32.84-33.83,4.88-3.89,9.95-4.61,15.65-1.85,9.69,4.7,19.45,9.26,29.25,13.73,1.09,.5,2.76,.37,3.92-.08,4.23-1.63,8.38-3.47,12.49-5.38,.9-.42,1.87-1.36,2.18-2.27,3.32-9.87,6.74-19.71,9.69-29.7,2.34-7.94,7.65-11,15.48-11.87,15.33-1.7,30.6-1.97,45.89,.05,5.33,.7,8.96,3.72,10.79,8.78,3.79,10.45,7.49,20.93,11.34,31.37,.33,.9,1.3,1.83,2.19,2.22,4.16,1.82,8.35,3.57,12.63,5.07,1.25,.44,3.04,.46,4.2-.11,9.59-4.72,19.11-9.55,28.59-14.48,5.28-2.75,10.26-2.55,15.05,.96,13.66,10.03,25.8,21.65,35.93,35.25,3.25,4.37,2.78,9.37,.48,14.22-4.55,9.57-9,19.18-13.63,28.71-.84,1.74-.68,2.99,.13,4.64,1.92,3.91,3.48,7.99,5.4,11.9,.5,1.02,1.63,1.97,2.7,2.44,2,.89,4.17,1.42,6.78,2.26Z" style="fill: #fff;"></path><path d="M263.38,190.52c-.95,7.32-1.77,14.2-2.8,21.04-.16,1.09-1.1,2.2-1.94,3.05-12.51,12.58-25.02,25.15-37.62,37.63-4.4,4.36-7.7,9.27-9.49,15.24-.3,.99-1.39,2.1-2.37,2.47-17.29,6.51-34.88,7.04-52.43,1.51-20.86-6.58-36.9-19.48-47.44-38.72-9.11-16.65-12.32-34.48-8.86-53.26,4.8-26.07,18.83-45.83,42.2-58.25,22.21-11.8,45.46-13.09,68.91-3.56,23.71,9.64,39.5,26.93,47.29,51.23,2.26,7.05,3.12,14.56,4.57,21.63Zm-82.57,58.2c30.42,.18,55.13-24.58,55.39-54.43,.27-31.27-24.1-56.1-55.21-56.29-30.11-.18-55.42,24.59-55.47,54.86-.05,31.6,25,55.7,55.29,55.85Z" style="fill: #fff;"></path></svg>