<svg xmlns="http://www.w3.org/2000/svg" id="Layer_1" data-name="Layer 1" viewBox="0 0 512 512"><path d="M336.32,388.09c0,17.7-.42,34.85,.19,51.97,.27,7.55,4.62,14.02,10.12,19.28,6.68,6.38,13.57,12.54,20.32,18.84,3.99,3.73,5.07,7.44,3.37,11.44-1.88,4.44-5.5,5.78-10.07,5.78-69.5-.04-139-.04-208.49,0-4.58,0-8.2-1.32-10.11-5.73-1.72-3.95-.61-7.77,3.34-11.45,6.19-5.77,12.44-11.47,18.66-17.19,8.5-7.82,12.81-17.42,12.73-29.04-.11-14.43-.03-28.87-.03-43.89-1.75,0-3.25,0-4.76,0-39.69,0-79.39,0-119.08,0-11.99,0-17.71-5.69-17.71-17.67,0-112.06,0-224.12,0-336.17,0-11.7,5.81-17.59,17.41-17.59,135.48,0,270.97,.02,406.45-.06,7.92,0,14.14,2.52,17.27,10.03,1.15,2.76,1.26,6.09,1.26,9.16,.06,92.67,.05,185.33,.05,278,0,19,.02,38,0,57.01-.02,11.43-5.9,17.29-17.32,17.29-39.43,0-78.87,0-118.3,0-1.8,0-3.6,0-5.27,0Zm-270.43-59.03H446.1V47.71H65.89V329.06Zm233.81,59.29h-88.03c0,6.2-.17,12.16,.03,18.11,.61,17.5,8.2,31.08,23.81,39.3,14.85,7.82,29.89,7.02,44.16-1.77,16.97-10.46,25.35-34.18,20.02-55.63Z" style="fill: #fff;"></path><path d="M366.21,234.19c0,6.49,.24,12.47-.07,18.42-.29,5.64-5.19,10.15-11.38,10.23-16.13,.2-32.27,.22-48.41,0-6.79-.09-11.45-5.11-11.46-11.84-.05-57.91-.03-115.82-.02-173.73,0-.64,.11-1.27,.2-2.15h70.89v28.97c-3.01,0-6.19,0-9.37,0-4.16,0-8.33,0-12.49,.01-7.82,.03-13.11,4.68-13.33,11.68-.22,7.17,4.99,12.43,12.88,12.68,5.98,.19,11.97,.04,17.96,.04,1.4,0,2.81,0,4.45,0v28.4c-7.54,0-15.04-.06-22.54,.02-6.93,.08-11.96,4.41-12.7,10.76-.84,7.15,4.1,13.2,11.32,13.46,6.5,.23,13.01,.08,19.52,.09,1.4,0,2.79,0,4.42,0v28.68c-7.31,0-14.44,0-21.56,0-8.29,.01-13.77,4.77-13.87,12.02-.1,7.31,5.53,12.23,14.05,12.24,7.01,.01,14.01,0,21.51,0Z" style="fill: #fff;"></path><path d="M145.93,176.75c6.32,3.74,12.14,7.33,18.11,10.63,1.83,1.01,4.05,1.55,6.15,1.81,15.55,1.92,29.84-1.04,42.19-11.22,.47-.39,1.1-.57,2.09-1.07v124.79h-68.53v-124.94Z" style="fill: #fff;"></path><path d="M200.83,147.22c-17.46,12.36-24.09,12.12-41.13,.08,.48-1.06,.96-2.21,1.52-3.32,4.29-8.44,8.4-16.97,13.02-25.22,1.16-2.06,3.74-4.04,6.02-4.59,2.95-.7,4.75,1.97,6.04,4.53,4.79,9.46,9.63,18.9,14.53,28.52Z" style="fill: #fff;"></path></svg>