<svg xmlns="http://www.w3.org/2000/svg" id="Layer_1" data-name="Layer 1" viewBox="0 0 512 512"><path d="M234.58,0c14.22,0,28.43,0,42.65,0,2.07,.43,4.12,1.05,6.21,1.28,140.04,15.42,241.29,140.46,227.19,280.59-14.08,139.94-140.17,243.04-279.86,228.82-105.58-10.75-192.92-83.97-221.41-186.26C5.07,309.02,3.06,292.98,0,277.23c0-14.22,0-28.43,0-42.65,.56-3.23,1.24-6.44,1.65-9.68C14.73,121.73,87.31,37.17,187.35,9.36c15.42-4.29,31.47-6.3,47.23-9.36Zm180.55,427.9c-2.73-2-5.3-3.43-7.3-5.42-33.06-32.95-66.04-65.96-99.04-98.96q-8.31-8.31-18.63-3.38c-2.14,1.02-4.33,1.92-6.53,2.8-5.94,2.4-14.34,3.19-17.16,7.58-3.04,4.74-.93,12.83-.95,19.46-.04,19.43,.02,38.85-.05,58.28-.03,7.21-3.77,11.83-9.34,12-5.82,.17-9.68-4.63-9.83-12.24-.04-1.89-.01-3.79-.01-5.69,0-22.27-.18-44.54,.11-66.8,.07-5.82-1.85-8.09-7.6-9.49-37.63-9.15-60.89-38.88-61.21-77.72-.13-15.87-.19-31.75,.03-47.62,.08-5.84-1.68-10.24-5.93-14.44-28.14-27.81-56.04-55.86-84.03-83.82-1.61-1.61-3.4-3.05-5.08-4.54C3.8,180.06-7.1,328.11,92.31,424.61c98.15,95.29,243.12,80.6,322.82,3.29Zm14.76-13.32c53.8-63.1,74.66-134.76,53.99-214.63-24.75-95.65-87.94-155.21-184.79-174.83-75.73-15.35-143.07,6.15-201.26,56.45,.73,1.6,.82,2.13,1.12,2.43,25.76,25.84,51.51,51.68,77.38,77.42,1.14,1.13,3.27,1.88,4.89,1.8,5.4-.27,10.78-1.49,16.15-1.43,6.23,.07,8.11-2.34,7.97-8.45-.37-16.1-.15-32.22-.11-48.33,.02-8.41,3.49-13.22,9.49-13.37,6.09-.15,9.66,4.53,9.69,12.99,.06,16.35,.2,32.7-.06,49.04-.09,5.71,1.76,8.13,7.67,8.05,15.87-.22,31.75-.2,47.62,.01,5.78,.08,7.92-2.09,7.83-7.93-.26-16.58-.12-33.17-.04-49.75,.04-7.92,3.64-12.49,9.52-12.41,5.91,.08,9.58,4.71,9.62,12.51,.08,14.45-.09,28.91,.06,43.36,.16,14.99-2.41,13.88,14.07,14.23,10.99,.24,13.48,2.67,13.5,13.49,.06,25.11-.02,50.23,0,75.34,.02,16.42-4.73,31.36-14.48,44.47-3.46,4.65-2.86,7.26,1.08,11.16,34.49,34.19,68.77,68.6,103.13,102.93,1.63,1.63,3.41,3.11,5.96,5.42Z" style="fill: #fff;"></path></svg>