<svg xmlns="http://www.w3.org/2000/svg" id="Layer_1" data-name="Layer 1" viewBox="0 0 512 512"><path d="M39.82,144.67c-5.66,1.88-10.3,3.5-14.99,4.96-10.58,3.3-20.44-1.36-23.79-11.18-3.35-9.79,1.58-19.6,12.12-23.24,18.86-6.5,37.78-12.85,56.75-19.05,10.8-3.53,20.29,1.06,23.98,11.74,6.57,19.04,12.91,38.16,19.11,57.33,3.3,10.19-1.67,20.23-11.08,23.39-9.86,3.3-19.74-1.74-23.47-12.04-1.54-4.26-2.93-8.56-4.39-12.85-.66-.1-1.32-.21-1.98-.31-4.46,12.31-9.81,24.37-13.25,36.96-31.47,114.88,37.27,229.55,153.45,255.42,49.52,11.02,96.89,3.62,141.84-20.02,4.61-2.42,10.71-4.05,15.71-3.3,13.11,1.94,18.81,17.71,10.58,28.16-2.77,3.53-6.41,6.81-10.34,8.93-128,69.1-292.16,6.52-341.35-130.15-23.1-64.18-20.01-127.3,8.75-189.16,.69-1.48,1.27-3.02,2.35-5.59Z" style="fill: #fff;"></path><path d="M438.97,350.44c10-19.21,16.31-38.05,19.8-57.77,18.25-103.18-42.33-202.52-142.65-233.01-54.41-16.54-107.04-10.8-157.43,15.58-3.2,1.67-6.56,3.49-10.03,4.07-8.92,1.5-16.97-3.73-19.81-12.18-2.81-8.37,.11-17.65,8.59-21.56,17.03-7.85,34.02-16.43,51.91-21.7C323.79-15.68,464.59,68.71,493.18,205.64c11.19,53.61,4.94,105.4-18.42,155.04-.72,1.54-1.39,3.1-2.6,5.82,5.42-1.74,9.86-3.18,14.3-4.59,11.18-3.54,21.07,.82,24.46,10.77,3.5,10.26-1.73,19.96-13.02,23.78-18.36,6.21-36.74,12.38-55.15,18.42-11.76,3.86-20.99-.77-25-12.54-6.25-18.34-12.42-36.71-18.47-55.11-3.71-11.28,1.06-21.39,11.35-24.65,10.07-3.19,19.38,2.05,23.25,13.1,1.57,4.49,3.1,8.99,5.09,14.76Z" style="fill: #fff;"></path><path d="M229.3,283.7c31.82-31.99,62.61-63.04,93.53-93.97,7.36-7.37,18.9-7.41,25.95-.56,7.25,7.06,7.34,18.63-.22,26.34-13.16,13.42-26.54,26.61-39.83,39.9-21.29,21.28-42.59,42.56-63.88,63.84-10.47,10.47-20.28,10.46-30.86-.03-16.21-16.08-32.37-32.21-48.67-48.21-6.58-6.46-7.52-14.01-4.72-22.23,2.13-6.23,10.36-11.46,18.31-10.17,4.88,.8,9.99,3.95,13.69,7.43,10.89,10.23,21.14,21.14,31.61,31.82,1.59,1.62,3,3.42,5.09,5.83Z" style="fill: #fff;"></path></svg>